<svg id="Camada_1" data-name="Camada 1" xmlns="http://www.w3.org/2000/svg" viewBox="0 0 100 100"><defs><style>.cls-1{fill:#f37763;}.cls-2{fill:#fff;}</style></defs><circle class="cls-1" cx="50" cy="50" r="40.85"/><path class="cls-2" d="M24.63,39.05c1.93.19,4.15.45,6.37.6a28.23,28.23,0,0,0,3.9-.06,9.61,9.61,0,0,0,8.48-5.67c.86-1.84,1.48-3.8,2.29-5.68A53.82,53.82,0,0,1,48.17,23a3.76,3.76,0,0,1,4.1-2c1.82.32,2.43,1.8,2.75,3.32.51,2.45.78,5,1.28,7.41.61,3,1.48,5.92,4.49,7.49,2.36,1.24,4.87,1,7.37.59,2.06-.31,4.12-.69,6.19-1a10.3,10.3,0,0,1,2.22,0c3.61.32,5.14,3,3,5.92a44.07,44.07,0,0,1-5.87,5.88c-1.25,1.17-2.66,2.17-4,3.29a7.68,7.68,0,0,0-2.45,8.22c.69,2.64,1.74,5.19,2.51,7.81A26.25,26.25,0,0,1,71,75.19c.21,2.85-1.61,4.33-4.41,3.83-3.34-.6-5.6-3-8-5.08a40.55,40.55,0,0,0-3.84-3.21c-3-2.09-5.64-2-8.61.16-1.71,1.27-3.32,2.7-4.92,4.11a15.36,15.36,0,0,1-6.87,3.8c-3.29.72-5.51-1-5.1-4.24a60.41,60.41,0,0,1,2.06-8c.53-2,1.24-3.9,1.61-5.89a6.29,6.29,0,0,0-2-6c-2.33-2.13-4.84-4-7.24-6.11a20.34,20.34,0,0,1-2.75-2.74c-1.11-1.42-2-3-1-4.88S22.57,39,24.63,39.05Zm7.57,4.41,0-.25a9.13,9.13,0,0,0-2.22,0c-.79.2-2,.55-2.14,1.09a3.12,3.12,0,0,0,.81,2.38c1.12,1.29,2.5,2.36,3.69,3.59a13.87,13.87,0,0,1,4,6.91,13.89,13.89,0,0,1-1,7.77,36.17,36.17,0,0,0-1.46,4.21,2.45,2.45,0,0,0,.45,2.11,3.16,3.16,0,0,0,2.31.19,4.8,4.8,0,0,0,1.87-1.16c1.74-1.53,3.37-3.2,5.17-4.67,4.68-3.8,9.55-3.51,13.81.8,1.44,1.45,2.73,3,4.13,4.53a5,5,0,0,0,1.74,1.35,2.25,2.25,0,0,0,1.9-.13,2.2,2.2,0,0,0,.29-1.86,12.54,12.54,0,0,0-1.25-2.48c-1-1.8-2.09-3.52-2.9-5.39-1.9-4.4-1-7.92,2.67-11,1.9-1.55,4-2.87,5.91-4.42.56-.45,1.21-1.46,1-2S69.74,44,69,43.92a28,28,0,0,0-3.89-.11c-5.84-.13-9.59-3.08-11.06-8.73-.41-1.58-.69-3.18-1.05-4.76-.25-1.07-.54-2.2-1.85-2.33s-2,.82-2.5,1.87c-.59,1.31-1.07,2.67-1.59,4-1.59,4.19-4.34,7.27-8.72,8.54A52.27,52.27,0,0,1,32.2,43.46Z"/><path class="cls-2" d="M48.12,59.11c-.84,1.1-1.9,1-2.94.68-4.2-1.11-6.86-5.8-6-10.48A9.45,9.45,0,0,1,46.7,41.9a8.69,8.69,0,0,1,9.14,3.39,7.06,7.06,0,0,1-3.31,11.16,5,5,0,0,1-6.05-2.18,6.24,6.24,0,0,1-.39-3.05c0-.38.78-.87,1.28-1,.25-.07.87.48,1,.86A2.17,2.17,0,0,0,51,52.73a2.66,2.66,0,0,0,2.12-2.6,4.57,4.57,0,0,0-5.28-4.55,5.82,5.82,0,0,0-5.1,4.34,6.29,6.29,0,0,0,1.81,6.76A29.2,29.2,0,0,0,48.12,59.11Z"/><path class="cls-2" d="M60.74,47.64c.67-.4,1.11-.87,1.41-.79s.7.64,1,1c-.36.28-.71.78-1.08.79S61.39,48.13,60.74,47.64Z"/><path class="cls-2" d="M41.2,63.21c-.57.5-.92,1-1.2,1s-.72-.52-1.08-.81c.28-.32.53-.88.83-.9S40.54,62.86,41.2,63.21Z"/><path class="cls-2" d="M57.38,59.93c-.49.44-.87,1-1.09.94-.39-.1-.69-.57-1-.89.3-.29.57-.77.9-.81S56.84,59.57,57.38,59.93Z"/><path class="cls-2" d="M50.09,37.93c-.41-.52-.93-.93-.86-1.17s.62-.62,1-.92c.27.32.75.63.77,1S50.5,37.44,50.09,37.93Z"/><path class="cls-2" d="M36,47.9c-.31.18-.7.58-.91.5s-.59-.56-.87-.87c.31-.27.61-.72.94-.76a3.13,3.13,0,0,1,1.26.44Z"/></svg>
