<svg id="Camada_1" data-name="Camada 1" xmlns="http://www.w3.org/2000/svg" viewBox="0 0 100 100"><defs><style>.cls-1{fill:#f37763;}</style></defs><path class="cls-1" d="M45.75,42.23c.12,2.33-.23,4.69.55,7a3.56,3.56,0,0,0,.93,1.37c.15-.74.29-1.47.43-2.21a9.7,9.7,0,0,1,.17-1.1,1.25,1.25,0,0,1,1.56-.85,1,1,0,0,1,.78,1.31c-.29,1.69-.57,3.38-.94,5a2.61,2.61,0,0,0,.7,2.27c.66-1.94,1.31-3.75,1.9-5.59a1.55,1.55,0,0,0-.08-1c-.43-1.08-.9-2.16-1.38-3.22a1.71,1.71,0,0,0-.56-.71,9.28,9.28,0,0,0-1.92-1.11,2.81,2.81,0,0,1-1.83-1.86c.12,0,.33,0,.36,0,.46-1,1.17-.94,2-.52a5.11,5.11,0,0,0,.67.23c-.31-1.49-.62-2.88-.89-4.28a1.28,1.28,0,0,1,1-1.66c.72-.12,1.11.26,1.33,1.2q.77,3.21,1.57,6.41c.16.61.41,1.2.62,1.8l.29-.05c.09-2,.21-4,.27-6.07a1.42,1.42,0,0,0-.4-.88c-.77-.84-1.59-1.64-2.39-2.46-.64-.67-.67-1.32-.11-1.88s1.15-.48,1.81.11l.77.71.2-.11c-.36-1.58-.71-3.17-1.09-4.75a.56.56,0,0,0-.27-.39,19.51,19.51,0,0,0-2.35-.88c-.51-.15-1.27-.82-1.2-1.24.16-.93.78-1.44,1.57-1.28.33.07.65.18,1,.29,0-.28,0-.5,0-.73,0-.45,0-.93.59-1s1.18-.07,1.48.22a2.05,2.05,0,0,1,.81,1.83,2.78,2.78,0,0,0,.2,1c.49,2.11,1,4.21,1.46,6.32a16.23,16.23,0,0,1,.2,2.1c.47-.68.71-1.42,1.09-2.07a4,4,0,0,0,.3-3.46c-.41-1.24-.84-2.48-1.28-3.71a1.34,1.34,0,0,1,.84-1.85,1,1,0,0,1,1.38.78c.23.61.56,1.2.92,2,.5-.67.82-1.17,1.2-1.61a1.2,1.2,0,0,1,1.74,0A1.12,1.12,0,0,1,62,27.18a8.46,8.46,0,0,0-.71,1.24c-.58,1.49-1.12,3-1.7,4.49-.35.9-.75,1.79-1.05,2.48l2.11.32c.08-.78.21-1.73.28-2.68.07-.76.56-1,1.18-.93a1.06,1.06,0,0,1,1.12,1.16c-.11,2.08-.21,4.16-.43,6.23-.26,2.33-.68,4.64-1,7a16,16,0,0,0,0,2.4c0,.76.09,1.51.14,2.27l.33,0c.72-2.75,1.56-5.48,2.14-8.27.51-2.48.75-5,1.06-7.55a2.93,2.93,0,0,0-.21-1.52c-.51-1-1.16-2-1.71-3.06A2.8,2.8,0,0,1,63.3,28l2.41.26a2.47,2.47,0,0,0,1,2.63,5.18,5.18,0,0,0,.25-.77c.15-1.06.69-1.58,1.51-1.42a1.6,1.6,0,0,1,1.05,2c-.39,1.28-.8,2.55-1.22,3.82a23,23,0,0,0-1,7c1-1.68,2-3.39,2.94-5.11a1,1,0,0,0,0-.65c-.2-1-.45-2-.63-2.93a1.14,1.14,0,0,1,.91-1.49,1.2,1.2,0,0,1,1.48,1.15,6.86,6.86,0,0,0,.2.77c.32-.36.53-.62.77-.85a1,1,0,0,1,1.44-.08,1.27,1.27,0,0,1,.18,1.88c-.55.77-1.13,1.51-1.64,2.3s-1,1.61-1.42,2.41l.21.22a6.81,6.81,0,0,0,.89-.34c.75-.42,1.32-.35,1.73.23A1.23,1.23,0,0,1,74,40.76c-.67.49-1.34,1-2,1.42a3,3,0,0,1-2.5.63c-1.08,1.57-2.14,3.1-3.17,4.63a6,6,0,0,0-.83,1.44,43.37,43.37,0,0,1-4.31,10l-3.68,6a34.33,34.33,0,0,1,4.09-1.13A2.68,2.68,0,0,0,63.74,62a45.87,45.87,0,0,1,2.31-4.46,4.16,4.16,0,0,0,.59-3.07c-.21-1.27-.38-2.55-.53-3.83-.11-1,.65-1.58,1.5-1.13a2.55,2.55,0,0,1,.93,1.29,7,7,0,0,1,.24,1.61l.22,0c.4-1,.79-1.94,1.22-2.9a1.21,1.21,0,0,1,1.64-.64,1.06,1.06,0,0,1,.61,1.48,14.76,14.76,0,0,1-.63,1.6c-.75,1.52-1.53,3-2.34,4.64l1-.27c.35-.1.7-.25,1.06-.32a1.13,1.13,0,0,1,1.3,1.53,1.9,1.9,0,0,1-1,.87,20.93,20.93,0,0,1-3.08,1c-1.78.41-2.2,1.83-2.74,3.33,1.36-.19,2.62-.4,3.9-.54,3.18-.33,3.25-.37,4-3.52a10.27,10.27,0,0,0,.12-1.1c.06-.86.13-1.71.19-2.56,0-1.23.06-2.46.15-3.68a3.19,3.19,0,0,0-.88-2.5c-.84-.94-1.66-1.89-2.44-2.88-.61-.76-.58-1.33,0-1.78a1.32,1.32,0,0,1,1.94.36l1.7,2c.08-.49.15-.8.18-1.1.22-2.35.46-4.7.63-7.05.06-.79.33-1.23,1.15-1.21A1.39,1.39,0,0,1,78,38.61c0,.11,0,.22,0,.51.3-.41.49-.66.68-.9a8.35,8.35,0,0,1,.63-.81,1.18,1.18,0,0,1,1.75-.18,1.17,1.17,0,0,1,.11,1.69c-1.17,1.57-2.31,3.16-3.46,4.75a1,1,0,0,0-.19.45c-.12,1-.26,1.93-.33,2.9-.24,3.62-.43,7.25-.69,10.87-.07,1-.32,2-.52,3.18a7.39,7.39,0,0,0,1.25-.91c1.08-1.29,2.06-2.65,3.16-3.92a1.38,1.38,0,0,0,.16-1.78c-.13-.23-.23-.47-.37-.68a8,8,0,0,1-.71-6.69c.51-1.83.94-3.69,1.38-5.54a1.13,1.13,0,0,1,1.27-1,1.07,1.07,0,0,1,1.12,1.15,7.34,7.34,0,0,1-.14,1.62c-.2,1-.46,2-.72,3.12a3.18,3.18,0,0,0,.33-.26c.83-.68,1.45-.73,1.92-.13.66.85.57,1.27-.41,2a16.2,16.2,0,0,0-1.94,1.54,2.26,2.26,0,0,0-.61,1.54,8.72,8.72,0,0,0,.91,2.17l3.19-4.81c.5-.76,1.16-1,1.81-.54s.75,1,.28,1.78-1.06,1.68-1.66,2.63l2.21-.32c.7-.11,1.28,0,1.44.81a1.31,1.31,0,0,1-1.11,1.56c-1.27.22-2.55.35-3.81.59a1.72,1.72,0,0,0-1,.56c-1.07,1.38-2.08,2.8-3.1,4.21a5,5,0,0,0-.31.56c1.11-.08,2.11-.16,3.1-.2.48,0,.65-.22.84-.65a25.6,25.6,0,0,1,1.66-3.26,1.1,1.1,0,0,1,1.74-.4A1.25,1.25,0,0,1,88,57.72c-.41.62-.75,1.3-1.23,2.14l2.15-.21c.69-.08,1.19.14,1.31.89A1.32,1.32,0,0,1,89.14,62c-.53.09-1.07.12-1.62.18l-3.06.31c1.91,1.58,3.84,3,5.8,4.32a1.17,1.17,0,0,1,.61,1.5,1.27,1.27,0,0,1-1.64.73c-.21-.07-.41-.17-.72-.29,0,1.12,0,2.18,0,3.23a1.2,1.2,0,1,1-2.38-.22c0-1.37,0-2.74,0-4.11a1.74,1.74,0,0,0-.49-1.09,13.81,13.81,0,0,0-5.94-3.43,4.54,4.54,0,0,0-2.59.13c1.31,1,2.49,1.79,3.64,2.67.79.6,1.58,1.22,2.31,1.89a1,1,0,0,1,.09,1.58,1.31,1.31,0,0,1-1.85,0,6.79,6.79,0,0,1-.63-.86,2.5,2.5,0,0,0-.4.75,1.14,1.14,0,0,1-1.45.74c-.66-.18-1.08-.64-.88-1.34a2,2,0,0,0-1-2.57c-.41-.24-.69-.68-1.08-1-.86-.6-1.65-1.47-2.9-1a3.69,3.69,0,0,1-.76.08c-1,.15-2,.32-3,.48l0,.33c1.84.63,3.69,1.25,5.52,1.92.38.14.92.48,1,.77A1.66,1.66,0,0,1,75,69.12a2,2,0,0,1-1.43.15c-.85-.17-1.67-.48-2.58-.76,0,.48,0,.85,0,1.22A1.16,1.16,0,0,1,69.74,71a1.15,1.15,0,0,1-1.15-1.22,6,6,0,0,1,0-1.2c.15-1-.31-1.31-1.16-1.52-2.84-.7-5.6-.15-8.43.57l5.68,2.89c.19.17.44.32.54.53s.43.89.29,1a4.56,4.56,0,0,1-1.25.81l-1.58-.51c.09.46.16.82.25,1.18.21.88-.1,1.49-.84,1.67s-1.3-.2-1.53-1.1-.31-1.69-.59-2.5a2.61,2.61,0,0,0-.9-1.37,8.68,8.68,0,0,0-2.47-.93A3.1,3.1,0,0,0,52.75,72a1.19,1.19,0,0,0,.72,1.53,1.21,1.21,0,0,1,.61,1.66,1.09,1.09,0,0,1-1.65.52A23.1,23.1,0,0,1,49.5,74a5.74,5.74,0,0,0-2.7-1.18,65.29,65.29,0,0,0-7.24-.63c-2.33,0-4.66.4-7,.62-.94.09-1.37-.17-1.47-.89a1.28,1.28,0,0,1,1.23-1.52l2.16-.33,0-.21c-1.27-.6-2.54-1.24-3.83-1.81-.58-.26-1-.57-1-1.25,0-1,.58-1.36,2.08-1-.33-1.12-.64-2.18-.94-3.24-.26-.89,0-1.48.66-1.69a1.26,1.26,0,0,1,1.69,1,13.7,13.7,0,0,1,.89,3.3c.08,2.12,1.5,2.89,3.08,3.61a8.39,8.39,0,0,0,3.89.92c0-.18-.2-.2-.31-.29l-3.41-2.87A1.28,1.28,0,0,1,37,64.68c.4-.58,1-.65,1.72-.17a12.67,12.67,0,0,1,1.15.9c1.08,1,2.14,2,3.23,2.94a3.26,3.26,0,0,0,.76.41,4.4,4.4,0,0,0-.72-1.16c-1.14-1.43-2.07-3-3.75-4-1.37-.76-2.68-1.64-4-2.45-2-1.21-4-2.4-6-3.6-.95-.06-1.91-.13-2.86-.16-.66,0-1.31,0-2,0-.85,0-1.7-.11-2.56-.13a1.51,1.51,0,0,0-.94.22c-1.9,1.68-3.76,3.4-5.64,5.09a17.7,17.7,0,0,1-2,1.67,1.16,1.16,0,0,1-1.66-.38,1,1,0,0,1,.29-1.56c.35-.3.7-.59,1-.9.65-.59.54-1.11-.32-1.4-.49-.16-1-.26-1.49-.38-.89-.22-1.24-.68-1.1-1.44a1.14,1.14,0,0,1,1.56-.9c1.42.39,2.82.87,4.32,1.33l1.67-1.56-.08-.26c-2.4-.24-4.8-.51-7.21-.71C9.49,56,9.07,55.77,9,55a1.27,1.27,0,0,1,1.37-1.32,8.06,8.06,0,0,1,1.63.06c1.46.19,2.92.43,4.53.68l-2.82-3.82c-.87-1.19-.69-1.78.76-2.25a1.28,1.28,0,0,1-.65-1.88c.5-.91,1.26-.55,2-.28.87.34,1.73.72,2.68,1.13-.37-1.16.43-1.58,1.13-2.08a2.23,2.23,0,0,1,1.41,2,3,3,0,0,0,2,2.93l1.22.55-.21,0,.1.13c0-.06.05-.12.08-.19-.42-1.2-.93-2.38-1.26-3.61-.2-.75.35-1.24,1.07-1.4a1,1,0,0,1,1.28.89,7.14,7.14,0,0,0,.35,1.28c.7,1.86,1.42,3.71,2.14,5.56a.59.59,0,0,0,.18.28l3.24,2.22.17-.18c-.33-.75-.64-1.51-1-2.26s-.22-1.55.48-1.89,1.32-.09,1.68.8c.7,1.68,1.33,3.4,2,5.1.08.2.16.47.32.57,1.18.71,2.38,1.39,3.76,2.19-.51-1.09-1-1.95-1.33-2.84A20.39,20.39,0,0,0,25.26,45.49a2.64,2.64,0,0,0-1-.19c-1.52.1-3,.36-4.56.32a11.87,11.87,0,0,1-3.12-.68,1.29,1.29,0,0,1-.88-1.76c.22-.65.7-.77,1.63-.56s1.85.33,2.49.43c-.54-.66-1.17-1.4-1.75-2.17-.22-.29-.52-.7-.45-1a2.5,2.5,0,0,1,.81-1.28c.52-.39.95.07,1.3.47a16.64,16.64,0,0,0,6.67,4.3c-.44-1-.77-1.82-1.21-2.61a2.2,2.2,0,0,0-1-.94c-.93-.38-1.91-.58-2.86-.91a1.23,1.23,0,0,1-.83-1.63c.21-.67.78-.9,1.59-.66L24,37.2c-.08-1.26.21-1.73,1.09-1.89s1.08.19,1.37,1.37A17.39,17.39,0,0,0,30,44.06a2.24,2.24,0,0,1,.28.65c.11-1.56,0-2.85.13-4.12a3.5,3.5,0,0,0-1.09-2.86,28.39,28.39,0,0,0-2.24-2c-.74-.61-1.55-1.15-2.31-1.74a1.05,1.05,0,0,1-.33-1.57,1.29,1.29,0,0,1,1.82-.33c.33.23.62.5.94.74l2.7,2c-.13-.57-.22-.93-.28-1.29-.19-1-.41-2.08-.53-3.13A1.45,1.45,0,0,1,30.39,29a1.14,1.14,0,0,1,1,1.21,26.48,26.48,0,0,0,.47,2.61,8.16,8.16,0,0,0,.68-1.54,5,5,0,0,1,.79-1.39,1.13,1.13,0,0,1,1.69,0,1.07,1.07,0,0,1,.11,1.66,4,4,0,0,0-.5.88c-.54,1.16-1.06,2.32-1.59,3.48a2.92,2.92,0,0,0-.43,1.09c.06,2.34.12,4.68.3,7,.16,2,1.27,3.51,2.5,5.22,0-.41,0-.58,0-.75,0-2.43-.08-4.87-.09-7.3a1.17,1.17,0,0,1,1.26-1.29c.74,0,1.14.45,1.15,1.29,0,.34,0,.68,0,1v2.32l2.2-.65c-.34-1-.67-2.05-1.06-3.09a3.27,3.27,0,0,0-.73-1.29,30.27,30.27,0,0,0-2.73-2c-.86-.6-1.11-1.28-.65-2s1-.69,1.92-.09c.38.25.78.48,1.23.76-.19-1.28-.32-2.4-.54-3.5-.29-1.45-.5-2.92-1.61-4.07A1.46,1.46,0,0,1,36,26.42c.61-.47,1.19-.33,1.75.55s1,1.8,1.49,2.73c.43-1.23.83-2.45,1.28-3.65a1.42,1.42,0,0,1,2-.88c.74.36.55,1,.34,1.67-.76,2.27-1.54,4.54-2.28,6.82a4.17,4.17,0,0,0-.29,1.65,32.55,32.55,0,0,0,.63,3.55,19.4,19.4,0,0,0,2.25,5.65,35.84,35.84,0,0,1,.31-3.81,9.49,9.49,0,0,0-.8-5.34c-.19-.48-.43-.94-.64-1.4a1.17,1.17,0,0,1,.52-1.62,1.08,1.08,0,0,1,1.57.37c.08.13.18.24.35.46a9.19,9.19,0,0,0,.13-1.24c0-2-.1-4.05-.18-6.07,0-.76.46-1.57,1.11-1.58a1.13,1.13,0,0,1,1.26,1.12c.1,1.25.22,2.5.31,3.76,0,.52,0,1,0,1.56l.37.24a19.3,19.3,0,0,1,1.4-1.71,1.76,1.76,0,0,1,1.1-.49c.32,0,.89.31.92.54a2.1,2.1,0,0,1-.27,1.55c-1,1-2.18,1.91-3.24,2.9a2.1,2.1,0,0,0-.63,1.12c-.28,1.65-.51,3.32-.7,5a9.11,9.11,0,0,0,.09,1.72C46,41.8,45.74,42,45.75,42.23ZM25.49,55.09c-.06-.13-.09-.33-.19-.4C22.67,53,20,51.21,17.38,49.51a8.38,8.38,0,0,0-1.59-.57,5.57,5.57,0,0,0,.44.91c1.15,1.44,2.29,2.9,3.5,4.3a1.92,1.92,0,0,0,1.16.55c1.53.17,3.07.26,4.6.38Zm21.37-.42c-2-3.17-4.13-6.24-6.14-9.25-.83.63-1.72,1.29-2.58,2a.89.89,0,0,0-.3.61,18.07,18.07,0,0,0,1.73,8.37c.59,1.13,1.11,2.3,1.82,3.44.09-1,.2-2,.24-2.92,0-.21-.24-.42-.38-.63-.69-1-1.45-2-2-3-.5-.9-.26-1.56.44-1.89s1.37,0,1.79.92c.12.28.28.55.46.9l.4-.47a1.19,1.19,0,0,1,1.61-.34,1.65,1.65,0,0,1,.52,1.28c-.14,2.79-.42,5.58-.56,8.37a6.34,6.34,0,0,0,1.81,4.92c1.16,1.21,2.24,2.49,3.47,3.68.2-1.43.65-2.75-.28-4.13a64.38,64.38,0,0,1-3.33-5.68,1.61,1.61,0,0,1,0-1.34,1.11,1.11,0,0,1,2,.07c.47.77.84,1.61,1.33,2.57C49.47,59.12,48.22,56.84,46.86,54.67ZM60.1,41.09a2.59,2.59,0,0,0-1.18-3.4,5.66,5.66,0,0,1-.88-1,14.53,14.53,0,0,1-1,2.05c-1.14,1.54-1.28,3.31-1.53,5.11-.32,2.28-.85,4.53-1.29,6.8.61-.21,1.37-.44,1.77.4a13.16,13.16,0,0,1,.59,2c.26,0,.55-.16.75-.08a2.17,2.17,0,0,1,1.1.67,1.26,1.26,0,0,1-.13,1.15c-.65.93-1.44,1.76-2.1,2.69-1.06,1.49-1.94,3.12-3.09,4.52a4.71,4.71,0,0,0-1.14,4.37A9.68,9.68,0,0,1,52,68,20.15,20.15,0,0,0,53.71,66c1.95-3,3.86-6.07,5.76-9.13a1.66,1.66,0,0,0,.18-.89c-.07-2.31-.33-4.63-.23-6.94a12.33,12.33,0,0,0-1.31-5.53c-.3-.68-.57-1.37-.84-2.06a1.07,1.07,0,0,1,.58-1.56,1.26,1.26,0,0,1,1.72.8c.11.26.2.52.38,1A6.43,6.43,0,0,1,60.1,41.09Zm-5.94,15a1.6,1.6,0,0,0,.09-1c-.12-1-.29-2-.47-3.28a22.32,22.32,0,0,0-2.23,8C52.42,58.56,53.32,57.33,54.16,56.06Z"/></svg>