<svg id="Camada_1" data-name="Camada 1" xmlns="http://www.w3.org/2000/svg" viewBox="0 0 100 100"><defs><style>.cls-1{fill:#f37763;}.cls-2{fill:#fff;}</style></defs><circle class="cls-1" cx="50" cy="50" r="40.85"/><path class="cls-2" d="M41,55.72c-3.78-4.2-6.57-8.86-7.24-14.53-.57-4.76-.07-9.38,2.81-13.4,2.16-3,5-5,8.9-4.91a5.58,5.58,0,0,1,5.07,3c.66,1.19.42,2.12-.82,2.65a8.82,8.82,0,0,1-2.49.7c-6.26.64-8.58,5.61-8.66,10.11C38.48,46,41.93,50.92,47.2,54.76c-.58-1.82-1.23-3.61-1.71-5.46-1.57-6.09.39-10.46,6-13.39,1.39-.73,2.9-1.23,4.31-1.91a20.21,20.21,0,0,0,3.25-1.82c1.14-.85,1.51-1.94.42-3.21s-1.57-2.62-.44-4.14a4.13,4.13,0,0,1,4.6-1.08c2.5.88,3.81,3.77,3,6.76-.86,3.33-3.36,5.05-6.28,6.38-1.62.74-3.26,1.49-4.81,2.37-4.22,2.39-6.16,6.13-5.4,10.91.51,3.15,1.44,6.23,2.11,9.36a14.11,14.11,0,0,1,0,7.41,8.1,8.1,0,0,1-3.78,4.71c-3.74,2.14-7.82,2.41-12,2.36-4-.05-7.92,0-12.17,0a12.63,12.63,0,0,1,6.32-1.78c2.44-.21,4.88-.37,7.3-.69a10.25,10.25,0,0,0,3.08-1c3.74-1.83,4.35-5.82,1.14-8.45a54.86,54.86,0,0,0-5.8-3.56c-3-1.91-6.25-3.58-9-5.87C23.1,49,20.64,44.26,21.54,38.28a9.06,9.06,0,0,1,4.55-7,2.87,2.87,0,0,1,3.62.22c1.15,1,.85,2.25.27,3.43s-1.18,2.09-1.66,3.18c-1.62,3.65-.95,7,1.48,10.06C32.73,51.9,36.77,54,41,55.72Z"/><path class="cls-2" d="M57.54,54.07C59.67,52.34,61.62,50.31,64,49c5.44-3.17,13.3-2.5,17.51,1.16a5.31,5.31,0,0,1,2.1,5,3.25,3.25,0,0,1-5.39,2.2c-1.1-.87-2-2-3.08-2.9A10.17,10.17,0,0,0,61,55.65a1.53,1.53,0,0,0-.15,2.13,15.45,15.45,0,0,1,1.52,2.87,6.57,6.57,0,0,1-1.36,7.25c-.66.73-1.39,1.38-2,2.1-1.32,1.43-1,2.56.88,3a15.75,15.75,0,0,0,3.07.31c.92.05,1.83,0,2.9,0-2.71,2.16-15,3.46-23,2.63a50.17,50.17,0,0,0,6.24-1.93A10.16,10.16,0,0,0,55.32,63a71.54,71.54,0,0,0-1.57-8.31c-1.64-6.84,1.67-12,6.78-15a21.83,21.83,0,0,1,15.66-2.93,16.92,16.92,0,0,1,5.28,2.33,2.68,2.68,0,0,1,1.06,3.58,2.89,2.89,0,0,1-3.37,1.68,15,15,0,0,1-3.54-1.16,13.26,13.26,0,0,0-13.73,1.51A10.29,10.29,0,0,0,57.54,54.07Z"/></svg>